<svg width="16" height="12" viewBox="0 0 16 12" fill="none" xmlns="http://www.w3.org/2000/svg">
<path d="M16 5.56522C16 8.6388 13.5084 11.1304 10.4348 11.1304V9.73913C12.74 9.73913 14.6087 7.87041 14.6087 5.56522C14.6087 3.26003 12.74 1.3913 10.4348 1.3913V0C13.5084 0 16 2.49163 16 5.56522Z" fill="white"/>
<path d="M13.2174 5.56522C13.2174 7.10201 11.9716 8.34783 10.4348 8.34783V6.95652C11.2032 6.95652 11.8261 6.33361 11.8261 5.56522C11.8261 4.79682 11.2032 4.17391 10.4348 4.17391V2.78261C11.9716 2.78261 13.2174 4.02843 13.2174 5.56522Z" fill="white"/>
<path fill-rule="evenodd" clip-rule="evenodd" d="M5.56522 8.34783L9.73913 11.1304V0L5.56522 2.78261H2.78261C1.24582 2.78261 0 4.02843 0 5.56522C0 7.10201 1.24582 8.34783 2.78261 8.34783H5.56522ZM2.78261 4.17391H5.56522L8.34783 2.43478V8.69565L5.56522 6.95652H2.78261C2.01421 6.95652 1.3913 6.33361 1.3913 5.56522C1.3913 4.79682 2.01421 4.17391 2.78261 4.17391Z" fill="white"/>
</svg>
